<?xml version="1.0" standalone="no"?>
<!DOCTYPE svg PUBLIC "-//W3C//DTD SVG 20010904//EN"
 "http://www.w3.org/TR/2001/REC-SVG-20010904/DTD/svg10.dtd">
<svg version="1.0" xmlns="http://www.w3.org/2000/svg"
 width="937.000000pt" height="577.000000pt" viewBox="0 0 937.000000 577.000000"
 preserveAspectRatio="xMidYMid meet">
<metadata>
Created by potrace 1.16, written by Peter Selinger 2001-2019
</metadata>
<g transform="translate(0.000000,577.000000) scale(0.100000,-0.100000)"
fill="#000000" stroke="none">
<path d="M170 5633 c0 -5 0 -294 1 -643 1 -349 1 -1023 1 -1498 l0 -863 52 29
c28 17 144 78 256 138 113 59 218 115 233 125 27 16 19 17 -187 11 l-216 -5 0
51 c0 28 4 54 10 57 8 5 112 -2 640 -44 52 -4 98 -6 101 -5 4 2 1 21 -7 41
-21 61 -17 96 21 186 7 16 -15 17 -379 17 l-387 0 3 53 3 52 300 -3 300 -3 38
35 39 35 -39 10 c-416 107 -628 172 -637 197 -11 27 -7 94 5 94 7 0 66 -20
133 -45 157 -57 322 -106 466 -138 127 -28 240 -44 240 -32 0 4 -17 27 -39 51
-21 24 -51 69 -67 98 l-29 55 -355 88 -355 88 0 45 c0 34 4 44 15 43 25 -4
593 -133 628 -143 40 -11 44 -3 40 71 l-3 54 -75 17 c-41 10 -185 43 -320 74
-135 30 -255 60 -268 65 -19 7 -23 15 -20 42 l3 32 75 -2 c175 -6 424 -57 644
-132 50 -17 95 -31 102 -31 7 0 15 14 19 31 4 17 20 45 36 64 l29 33 -39 15
c-136 55 -439 104 -715 116 l-151 6 -3 53 -3 52 60 0 c262 0 872 -108 1176
-208 185 -61 404 -166 503 -240 18 -14 35 -22 39 -19 7 8 -13 115 -34 182 -45
142 -104 211 -267 312 -317 197 -625 300 -951 319 -108 7 -125 13 -125 45 0
12 25 19 128 32 342 45 591 26 881 -69 520 -170 986 -625 1184 -1154 78 -209
108 -389 108 -635 0 -187 -17 -331 -56 -487 -37 -147 -29 -140 -127 -110 -156
46 -313 34 -414 -32 -48 -31 -56 -49 -40 -88 41 -99 39 -326 -4 -442 -51 -134
-170 -225 -306 -234 l-71 -4 -21 -85 c-33 -131 -84 -224 -172 -314 -65 -65
-92 -84 -181 -127 -197 -94 -345 -128 -514 -119 -102 6 -186 28 -253 67 -32
19 -40 20 -115 9 -177 -26 -379 15 -531 106 l-58 35 7 -448 c4 -246 9 -450 12
-454 2 -5 321 -8 709 -8 l704 0 10 23 c5 12 32 137 60 277 28 140 55 257 60
260 4 3 67 25 138 50 l130 44 40 -34 c22 -19 93 -82 157 -140 65 -58 141 -127
171 -153 l54 -48 81 63 c45 35 114 88 153 118 39 30 152 118 250 195 99 77
184 143 189 147 6 3 -7 46 -32 105 -24 54 -72 167 -108 250 l-65 152 78 111
c42 61 81 113 86 116 5 3 111 0 236 -7 125 -8 250 -14 277 -14 l50 0 53 180
c29 99 82 277 118 397 35 119 64 220 64 225 0 4 -51 37 -113 72 -160 92 -310
182 -327 197 -12 10 -14 39 -12 163 l3 150 121 78 c248 160 328 213 328 215 0
5 -257 760 -265 781 -9 22 -7 22 -291 -8 -132 -14 -244 -25 -251 -25 -12 0
-66 67 -141 176 l-42 60 59 147 c33 80 81 194 106 253 44 101 46 106 28 119
-10 8 -58 44 -108 80 -438 317 -561 405 -571 405 -6 0 -44 -30 -86 -67 -205
-185 -322 -289 -334 -296 -11 -7 -257 83 -276 101 -4 4 -29 104 -56 222 -28
118 -55 234 -61 258 l-12 42 -679 0 c-374 0 -680 -3 -680 -7z"/>
<path d="M6098 4201 c-271 -87 -409 -417 -298 -714 47 -126 160 -235 287 -278
86 -28 242 -24 316 9 49 22 177 135 177 156 0 7 -25 36 -55 66 l-55 55 -27
-29 c-76 -82 -176 -111 -279 -81 -148 43 -223 163 -212 340 7 101 36 171 92
223 56 52 102 66 207 65 88 -1 116 -9 156 -46 l22 -20 -20 -28 c-19 -28 -19
-28 0 -38 17 -9 29 1 95 84 42 52 76 98 76 103 0 26 -156 115 -242 138 -72 19
-171 17 -240 -5z"/>
<path d="M6717 4194 c-28 -8 -16 -39 16 -42 l27 -3 -2 -442 -3 -442 -27 -3
c-22 -3 -28 -9 -28 -28 l0 -24 145 0 145 0 0 283 c0 216 3 287 13 301 11 16
33 -10 202 -241 104 -142 203 -277 220 -300 30 -41 31 -42 93 -42 l63 -1 -6
478 c-4 262 -8 483 -10 490 -3 9 -35 12 -116 12 l-111 0 6 -42 c3 -24 6 -119
7 -213 2 -165 1 -170 -19 -173 -21 -3 -22 -2 -252 309 -31 42 -63 87 -71 100
-15 22 -22 23 -145 25 -71 2 -137 0 -147 -2z"/>
<path d="M7757 4186 c-7 -18 1 -26 25 -26 17 0 18 -20 18 -449 l0 -450 -22 -3
c-13 -2 -24 -11 -26 -20 -3 -17 9 -18 142 -18 l146 0 1 153 c1 83 4 179 8 212
l6 60 107 -218 c137 -279 128 -277 232 -57 40 85 85 182 100 214 41 91 42 88
44 -194 l2 -180 105 0 105 0 -2 493 -3 492 -96 3 c-69 2 -99 -1 -106 -10 -5
-7 -38 -74 -72 -148 -116 -251 -174 -370 -180 -370 -4 0 -12 12 -18 28 -31 77
-215 478 -225 489 -16 19 -284 19 -291 -1z"/>
<path d="M4124 4177 c-10 -28 1 -220 14 -225 8 -2 12 8 12 32 l0 36 104 0 103
0 5 -372 c3 -205 3 -379 0 -385 -2 -8 -21 -13 -43 -13 -32 0 -39 -3 -39 -20 0
-19 7 -20 185 -20 l185 0 0 30 c0 29 -1 30 -50 30 l-50 0 2 373 3 372 127 -4
126 -3 4 87 c2 48 1 89 -1 91 -2 2 -157 4 -343 4 -271 0 -340 -3 -344 -13z"/>
<path d="M4970 4176 c0 -8 10 -16 23 -18 l22 -3 6 -425 c3 -234 7 -446 8 -472
l1 -48 310 0 310 0 0 95 0 95 -209 0 c-165 0 -211 3 -220 14 -15 17 -7 182 10
202 9 11 42 14 140 14 70 0 130 3 132 8 2 4 2 44 -1 90 l-4 82 -138 0 c-116 0
-139 2 -144 16 -11 29 -6 160 6 172 9 9 72 12 220 12 l208 0 0 90 0 90 -340 0
c-288 0 -340 -2 -340 -14z"/>
<path d="M2130 4139 c0 -5 11 -31 24 -57 56 -110 76 -274 53 -433 l-8 -56 63
-23 c183 -66 331 -171 384 -272 23 -42 24 -132 2 -175 -23 -46 -2 -43 54 7
109 95 126 276 47 495 -73 201 -253 387 -454 467 -82 34 -165 57 -165 47z"/>
<path d="M1354 4091 c-47 -29 -64 -59 -64 -114 0 -86 49 -137 133 -137 80 0
137 56 137 135 0 105 -116 171 -206 116z"/>
<path d="M1720 3890 c0 -33 -5 -72 -12 -87 -19 -44 -66 -100 -103 -123 -53
-33 -44 -42 33 -35 183 18 328 54 412 103 l45 26 -160 77 c-88 43 -172 82
-187 88 l-28 10 0 -59z"/>
<path d="M1135 3783 c9 -70 42 -146 87 -199 73 -87 74 -87 165 -63 157 40 387
35 575 -12 97 -24 98 -24 98 9 0 15 6 51 14 80 7 29 12 52 10 52 -2 0 -18 -9
-36 -19 -18 -11 -66 -29 -105 -41 -67 -20 -90 -22 -305 -18 l-233 3 -67 32
c-77 36 -145 100 -183 170 l-26 48 6 -42z"/>
<path d="M2142 3433 c-6 -36 -18 -73 -26 -81 -9 -9 -39 -17 -68 -19 -60 -4
-166 -31 -174 -45 -14 -23 20 -38 86 -38 73 0 96 -13 83 -46 -14 -39 -47 -74
-80 -85 -75 -24 -145 36 -92 80 22 18 23 20 6 26 -31 12 -89 -3 -126 -33 -56
-46 -98 -133 -117 -246 -21 -121 -11 -177 44 -255 61 -87 63 -93 48 -116 -22
-34 -57 -46 -102 -34 -28 8 -61 33 -118 91 -69 71 -76 75 -55 38 42 -74 167
-217 236 -269 135 -102 255 -143 356 -121 61 13 163 61 160 74 -2 6 -33 10
-70 11 -65 1 -102 13 -143 47 -45 37 -65 104 -37 125 6 6 24 13 39 17 26 6 28
10 25 54 -2 45 -1 47 26 50 31 4 31 4 16 47 -10 26 -9 36 6 58 10 16 26 27 40
27 36 0 89 21 108 42 10 13 17 36 17 62 -1 43 -2 47 -70 214 -26 65 -40 115
-38 135 3 31 4 32 46 29 40 -3 47 0 88 41 73 74 57 136 -45 172 -24 8 -47 15
-51 15 -4 0 -12 -30 -18 -67z"/>
<path d="M1452 3470 c-88 -12 -181 -45 -217 -76 -21 -18 -24 -24 -10 -19 49
18 173 17 225 0 52 -17 143 -93 168 -140 10 -19 11 -18 33 10 62 81 134 124
252 154 l71 18 -69 16 c-165 38 -345 52 -453 37z"/>
<path d="M1320 3300 c-205 -36 -245 -331 -58 -424 118 -59 240 -10 293 117 19
45 19 127 1 171 -15 37 -69 102 -97 117 -30 16 -101 25 -139 19z m100 -85 c67
-35 94 -116 62 -189 -27 -61 -71 -88 -133 -83 -80 7 -129 61 -129 143 0 107
108 177 200 129z"/>
<path d="M4244 3041 c-41 -18 -74 -69 -74 -117 0 -97 70 -156 155 -133 27 8
35 15 35 33 0 22 -3 23 -50 18 -66 -6 -90 13 -90 74 0 34 5 47 26 63 32 25 61
27 92 5 21 -15 22 -14 22 15 0 16 -4 32 -8 35 -18 11 -88 15 -108 7z"/>
<path d="M4759 3011 c-36 -35 -39 -43 -39 -92 0 -113 91 -180 180 -134 69 36
95 114 62 189 -24 52 -62 76 -123 76 -35 0 -48 -6 -80 -39z m134 -31 c33 -26
41 -62 23 -105 -36 -85 -146 -57 -146 37 0 73 68 111 123 68z"/>
<path d="M5233 3017 c-31 -29 -37 -41 -41 -89 -8 -98 50 -163 136 -155 94 10
148 114 105 204 -21 46 -67 73 -121 73 -34 0 -49 -6 -79 -33z m138 -46 c16
-16 29 -39 29 -51 0 -34 -29 -80 -57 -91 -79 -30 -140 85 -78 146 33 33 70 32
106 -4z"/>
<path d="M5554 3031 c-70 -43 -71 -165 -1 -229 31 -29 92 -38 141 -22 35 11
36 13 36 60 0 28 5 50 12 52 6 2 8 10 4 16 -11 18 -116 16 -116 -2 0 -7 9 -16
21 -19 16 -4 20 -12 17 -34 -2 -22 -9 -29 -30 -31 -43 -5 -78 36 -78 91 0 79
61 123 115 83 11 -8 25 -12 32 -9 20 8 16 41 -6 53 -32 17 -113 12 -147 -9z"/>
<path d="M6203 3017 c-31 -29 -37 -41 -41 -89 -8 -99 50 -164 138 -155 121 13
160 192 55 257 -51 32 -108 27 -152 -13z m135 -39 c30 -33 36 -70 17 -107 -41
-80 -145 -50 -145 41 0 75 80 116 128 66z"/>
<path d="M7214 3034 c-62 -30 -84 -126 -44 -191 23 -39 52 -55 95 -55 52 0 75
11 75 36 0 21 -3 22 -53 18 -68 -5 -87 11 -87 74 0 73 61 108 118 68 21 -15
22 -14 22 14 0 25 -6 32 -31 41 -42 14 -58 14 -95 -5z"/>
<path d="M7590 3034 c-90 -56 -90 -182 -1 -241 42 -28 86 -29 128 -3 86 52 94
162 17 230 -40 35 -101 41 -144 14z m112 -54 c73 -57 10 -184 -73 -149 -37 15
-63 62 -54 98 16 65 78 90 127 51z"/>
<path d="M3690 3005 c0 -19 5 -35 10 -35 6 0 10 5 10 10 0 6 11 10 25 10 l25
0 0 -100 0 -100 35 0 35 0 0 99 0 100 38 3 c29 2 37 7 37 23 0 19 -8 20 -107
23 l-108 3 0 -36z"/>
<path d="M3940 3030 c0 -5 7 -10 15 -10 12 0 15 -19 15 -115 l0 -115 75 0 c67
0 75 2 75 19 0 20 -25 31 -72 31 -23 0 -28 4 -28 25 0 22 4 25 35 25 31 0 35
3 35 25 0 22 -4 25 -35 25 -30 0 -35 3 -35 24 0 23 5 25 48 28 39 3 47 6 47
23 0 18 -8 20 -87 23 -56 2 -88 -1 -88 -8z"/>
<path d="M4440 2917 c0 -120 1 -127 20 -127 18 0 20 7 20 75 0 41 3 75 8 75 4
0 36 -33 72 -74 43 -50 72 -75 88 -75 25 -1 27 18 15 167 -6 78 -7 82 -29 82
-23 0 -24 -3 -24 -70 0 -49 -4 -70 -12 -70 -7 0 -45 33 -85 72 l-73 72 0 -127z"/>
<path d="M5984 3030 c-11 -4 -33 -22 -47 -40 -22 -25 -27 -42 -27 -82 0 -45 4
-54 39 -89 32 -32 45 -39 79 -39 55 0 72 8 72 35 0 21 -3 22 -45 17 -65 -7
-95 15 -95 71 0 33 6 49 23 65 28 26 73 28 99 5 17 -15 18 -14 18 16 0 25 -6
34 -26 41 -30 12 -61 12 -90 0z"/>
<path d="M6596 3031 c-3 -5 3 -11 14 -14 18 -5 20 -14 20 -116 l0 -111 25 0
c24 0 25 2 25 67 l0 67 68 -67 c37 -37 73 -67 80 -67 9 0 12 33 12 126 0 124
0 125 -22 122 -21 -3 -23 -10 -28 -73 l-5 -69 -65 72 c-50 56 -70 72 -91 72
-16 0 -30 -4 -33 -9z"/>
<path d="M6956 2928 c-27 -62 -50 -119 -53 -125 -3 -8 3 -13 16 -13 12 0 21 5
21 10 0 6 30 10 70 10 40 0 70 -4 70 -10 0 -5 9 -10 20 -10 11 0 20 2 20 4 0
2 -20 51 -44 108 -24 56 -46 111 -49 121 -4 9 -10 17 -15 17 -5 0 -30 -51 -56
-112z"/>
<path d="M7800 3031 c0 -5 9 -11 20 -14 18 -5 20 -14 20 -116 l0 -111 25 0
c24 0 25 2 25 67 l0 67 68 -67 c37 -37 73 -67 80 -67 9 0 12 33 12 126 0 124
0 125 -22 122 -21 -3 -23 -10 -28 -73 l-5 -69 -64 72 c-55 62 -68 72 -97 72
-19 0 -34 -4 -34 -9z"/>
<path d="M8184 2964 c-20 -43 -45 -100 -55 -126 -18 -47 -18 -48 1 -48 10 0
22 5 25 10 3 6 35 10 71 10 36 0 64 -4 64 -10 0 -5 9 -10 20 -10 11 0 20 3 20
6 0 11 -92 229 -100 238 -6 6 -24 -22 -46 -70z"/>
<path d="M8736 3031 c-3 -5 1 -11 9 -15 12 -4 15 -27 15 -116 l0 -110 68 0
c45 0 75 5 90 16 72 50 68 180 -8 219 -32 16 -165 21 -174 6z m157 -51 c52
-41 42 -116 -20 -145 -56 -27 -63 -18 -63 80 l0 85 29 0 c15 0 40 -9 54 -20z"/>
<path d="M9010 3030 c0 -5 7 -10 15 -10 12 0 15 -19 15 -115 l0 -115 76 0 c72
0 75 1 72 23 -3 19 -10 22 -50 25 -43 3 -48 5 -48 28 0 21 5 24 35 24 31 0 35
3 35 25 0 22 -4 25 -35 25 -30 0 -35 3 -35 24 0 23 5 25 48 28 39 3 47 6 47
23 0 18 -8 20 -87 23 -56 2 -88 -1 -88 -8z"/>
<path d="M934 2808 c-240 -326 -341 -471 -488 -703 -192 -301 -302 -526 -326
-667 -11 -63 -11 -70 12 -110 61 -111 255 -178 519 -178 l76 0 12 153 c26 332
89 799 142 1053 32 155 95 363 140 463 35 77 35 81 5 81 -19 0 -39 -20 -92
-92z"/>
<path d="M675 2822 c-249 -129 -455 -284 -524 -391 -54 -83 -62 -127 -50 -245
12 -105 52 -283 68 -299 6 -6 18 7 32 34 41 83 213 374 293 499 104 162 230
330 300 402 31 31 56 59 56 62 0 19 -60 -3 -175 -62z"/>
<path d="M1129 2819 c-29 -55 -83 -242 -110 -381 -51 -269 -76 -737 -61 -1121
5 -120 12 -221 16 -225 4 -4 85 -7 179 -7 184 0 266 13 386 60 83 32 173 98
219 159 50 66 51 67 78 144 l22 65 -73 37 c-118 59 -230 162 -312 287 -135
207 -198 441 -210 781 l-6 174 -55 24 c-30 13 -56 24 -58 24 -2 0 -8 -10 -15
-21z"/>
<path d="M1350 2708 c0 -77 24 -268 44 -358 60 -266 183 -462 368 -586 81 -54
198 -103 268 -111 46 -5 50 -4 95 38 113 104 159 224 153 398 -1 55 -6 102 -9
106 -4 3 -42 -4 -85 -17 -156 -44 -325 -25 -453 50 -68 40 -176 146 -230 228
-47 69 -131 233 -131 253 0 5 -4 13 -10 16 -6 3 -10 -4 -10 -17z"/>
<path d="M7402 2550 c-108 -39 -183 -108 -233 -213 -114 -245 -19 -522 220
-640 61 -30 73 -32 171 -32 114 0 163 12 210 52 29 24 30 27 30 114 l0 89 -57
-32 c-52 -29 -68 -33 -154 -36 -151 -6 -214 22 -257 117 -51 111 -29 279 45
356 105 108 287 100 388 -18 l35 -41 0 110 c0 104 -2 112 -24 133 -62 58 -265
80 -374 41z"/>
<path d="M8214 2552 c-271 -94 -384 -408 -242 -675 38 -71 110 -136 198 -180
60 -30 71 -32 170 -32 99 0 109 2 172 34 127 64 226 198 249 342 36 220 -96
446 -300 512 -69 22 -181 22 -247 -1z m224 -179 c54 -26 114 -93 135 -149 20
-56 22 -155 5 -205 -20 -60 -67 -118 -121 -149 -42 -24 -64 -30 -115 -30 -150
0 -252 111 -252 275 0 88 24 150 81 207 76 76 175 95 267 51z"/>
<path d="M6750 2510 c0 -39 1 -40 35 -40 l35 0 0 -385 0 -385 90 0 90 0 0 425
0 425 -125 0 -125 0 0 -40z"/>
<path d="M4230 2510 c0 -11 7 -23 15 -26 21 -9 19 -33 -20 -232 -46 -237 -95
-510 -95 -533 0 -17 8 -19 64 -19 36 0 67 3 69 8 3 4 24 91 48 194 33 145 46
185 55 177 7 -6 58 -81 113 -167 55 -86 109 -170 119 -185 l19 -28 118 196
c75 125 121 191 126 183 4 -7 21 -78 39 -158 17 -80 36 -162 41 -182 l10 -38
69 0 c53 0 70 3 70 14 0 8 -14 74 -31 147 -16 74 -55 251 -85 394 -30 142 -56
261 -58 262 -6 6 -30 -36 -124 -212 -140 -264 -166 -309 -176 -308 -5 0 -76
120 -157 264 l-147 264 -41 3 c-36 3 -41 1 -41 -18z"/>
<path d="M5160 2510 c0 -13 9 -22 25 -26 l25 -6 0 -172 c0 -94 3 -269 7 -388
l6 -218 254 0 253 0 0 69 c0 54 -4 70 -16 75 -9 3 -78 6 -154 6 -163 0 -160
-2 -160 104 0 81 7 86 119 86 l81 0 0 80 0 80 -88 0 c-55 0 -92 4 -100 12 -7
7 -12 43 -12 90 l0 78 165 0 165 0 0 75 0 75 -285 0 c-277 0 -285 -1 -285 -20z"/>
<path d="M5812 2508 c2 -17 11 -24 35 -28 26 -4 52 -29 153 -153 66 -81 125
-159 131 -174 11 -30 7 -37 -180 -298 -55 -77 -101 -143 -101 -147 0 -5 46 -8
103 -8 l103 0 78 125 c122 196 95 194 222 22 l109 -147 103 0 104 0 -38 53
c-21 28 -81 111 -134 182 -131 177 -130 176 -130 208 0 28 22 63 186 295 l65
92 -100 0 -100 0 -62 -92 c-70 -106 -97 -138 -115 -138 -7 0 -49 52 -94 115
l-82 115 -129 0 c-129 0 -130 0 -127 -22z"/>
</g>
</svg>
